<svg xmlns="http://www.w3.org/2000/svg" xmlns:xlink="http://www.w3.org/1999/xlink" viewBox="0 0 750.67 374.75"><defs><style>.cls-1,.cls-10{isolation:isolate;}.cls-2{fill:#04398c;}.cls-3{fill:#0068ff;}.cls-4{fill:#0031ff;}.cls-5{fill:#f9fbfc;}.cls-6,.cls-7,.cls-8{fill:#e5b39b;}.cls-12,.cls-14,.cls-6{opacity:0.5;}.cls-12,.cls-14,.cls-6,.cls-7{mix-blend-mode:multiply;}.cls-7{opacity:0.3;}.cls-9{fill:#d39c85;}.cls-10{fill:#ffbfa9;}.cls-11{fill:url(#linear-gradient);}.cls-12{fill:#dda58e;}.cls-13{fill:#71ccff;}.cls-14{fill:#a2cbe0;}.cls-15{fill:#8fddff;}.cls-16{fill:#d8a38f;}.cls-17,.cls-24,.cls-25,.cls-26,.cls-27,.cls-28,.cls-29,.cls-30,.cls-31,.cls-33{fill:none;}.cls-17{stroke:#7bdaff;stroke-width:1.08px;}.cls-17,.cls-24,.cls-25,.cls-26,.cls-28,.cls-29,.cls-33{stroke-miterlimit:10;}.cls-18{fill:#004dbc;}.cls-19{fill:#ceeafc;}.cls-20{fill:#0065dd;}.cls-21{fill:#00489e;}.cls-22{fill:#bbe0f7;}.cls-23{fill:#98c4da;}.cls-24,.cls-25{stroke:#ceeafc;}.cls-24{stroke-width:1.06px;}.cls-25{stroke-width:0.79px;}.cls-26,.cls-29,.cls-30,.cls-31,.cls-33{stroke:#71ccff;}.cls-27,.cls-28{stroke:#fff;stroke-linecap:round;}.cls-27,.cls-30,.cls-31{stroke-linejoin:round;}.cls-27,.cls-28,.cls-29,.cls-30{stroke-width:2px;}.cls-32{fill:#fff;}.cls-33{stroke-width:0.75px;}</style><linearGradient id="linear-gradient" x1="379.99" y1="199.19" x2="420.77" y2="252.95" gradientUnits="userSpaceOnUse"><stop offset="0" stop-color="#fff" stop-opacity="0"/><stop offset="0.43" stop-color="#fdffff" stop-opacity="0.01"/><stop offset="0.58" stop-color="#f6feff" stop-opacity="0.03"/><stop offset="0.69" stop-color="#eafcff" stop-opacity="0.08"/><stop offset="0.78" stop-color="#d9faff" stop-opacity="0.15"/><stop offset="0.86" stop-color="#c3f7ff" stop-opacity="0.23"/><stop offset="0.93" stop-color="#a8f3ff" stop-opacity="0.34"/><stop offset="0.98" stop-color="#89efff" stop-opacity="0.46"/><stop offset="1" stop-color="#7feeff" stop-opacity="0.5"/></linearGradient></defs><g class="cls-1"><g id="Layer_2" data-name="Layer 2"><g id="OBJECT"><path class="cls-2" d="M110.18,215.74c14.7,9.77,32.38,16.32,48.79,24.26,15.78,7.64,32.26,20.16,27.89,34.25-3.31,10.66-17.06,16.78-27.7,23.94-23.91,16.08-34.31,43-27.53,66.86,23-.47,46-.78,69.05-.39,45.9.77,91.77,2.81,137.65,4.24,46.34,1.45,92.69,1.75,139.05,1.87h13.18a9.76,9.76,0,0,1-.45-2.89c.05-13.88,25.28-24.87,35.49-29.49,15.08-6.82,31.24-11,47.52-13.66,26.85-4.36,55.41-1.29,81.17-11.31,14.55-5.66,27.81-18.77,27.57-34.52-.23-15.13-12.31-27.1-22.73-36.51-3.55-3.21-7.1-6.2-10.33-9-17-14.54-33.16-32.45-39.52-54.48-7.18-24.84-5.16-51.62-11.49-76.71C581.76,38.64,514.7,5.63,454.55.61a179.34,179.34,0,0,0-100.47,21.2,157.68,157.68,0,0,0-40,31c-12.08,13-23.41,26.83-38.68,36.15-31.74,19.39-74.55,19.18-111.47,28.5-31.87,8-76.85,29.44-79.31,58.61l-.06.9C83.77,192,95.49,206,110.18,215.74Z"/><polygon class="cls-3" points="343.76 174.27 330.51 152.51 346.58 153.4 343.76 174.27"/><path class="cls-4" d="M409.81,124.46s3.13,29.39-8.92,32.75S393.63,129,393.63,129"/><polygon class="cls-3" points="303.23 209.78 425.8 209.28 434 276.02 405.82 369.76 306.43 372.1 303.23 209.78"/><path class="cls-3" d="M470.25,345.54c-.95,5.2-15.2,20.42-34.4,7.72-5-3.32-10.12-8.88-14.92-15.26-2.14-2.86,2.68-4.65,7-6.58,3-1.36,5.88-2.79,5.91-4.7a2.53,2.53,0,0,0-.38-1.28,22.41,22.41,0,0,1-1.9-5c-3.45-12.28-2.21-47-9.1-70.07a109.21,109.21,0,0,0-23.46-41l15.42-3.13a32.21,32.21,0,0,1,3.25-.29,72.5,72.5,0,0,1,16.29.13c4.73.68,7.51,1.59,11.44,4.43,4.28,3.09,6.71,7.79,8.38,12.68,3.37,9.92,3.95,20.46,6.14,30.65.42,2,.89,3.9,1.45,5.83v0c4.89,17,9.22,36.61,10.36,51A141.28,141.28,0,0,1,470.25,345.54Z"/><path class="cls-5" d="M439.64,355.44c8.69,4.29,16.16,3,21.56,0Z"/><path class="cls-6" d="M460.2,330.87h0l-14.73,7.35-14.62-1.3c-1-1.79-1.94-3.64-2.86-5.51-.75-1.49-1.47-3-2.17-4.53,2.12-.11,4.92-.2,8.08-.17a2.53,2.53,0,0,0-.38-1.28,22.41,22.41,0,0,1-1.9-5A109.81,109.81,0,0,1,460.2,330.87Z"/><path class="cls-6" d="M413.36,283.15l-6.63-5.33S402,267.4,402,267.32c-1.37-4.38-10.63-7.89-12.28-6.27s-8.33,12.82-11.43,16.87c-1.67,2.19-3.22,3.48-6.74,6.56-5.37,3.19-11.23,5.27-16.71,8.25-5.92,3.23-25.38,9.41-35.56,13.52a3.3,3.3,0,0,1-4.52-3.08c.06-11.41.14-39.06-.38-53.48-.79-22.05,5-37.85,5-37.85L306.11,210a43.34,43.34,0,0,0-7.55-.4c-7.6.26-14.83,1-20.42,7.58-8.24,9.71-2.89,36.61-3.47,48.25-.86,17.19-.36,38.07,0,52.47.47,18.73,12.9,35.35,13.67,36.66,2.21,3.78,6.06,10.48,15,8,3.22-.91,7.11-3,11.82-6.89,3.65-3-.79-20.64-2.71-29.26-.07-.32-.14-.62-.21-.91l8.48-4.31c.08-.68.15-1.37.22-2.06l19.38,33.31c15.11-9.31,24.28-27.1,33.3-37.54a35,35,0,0,1,16.58-10.62l1.21-.38c9.86-3.22,15.88-5.9,18.79-8,1.65-1.22,6.68-5.51,7.72-6.48C419.84,287.52,413.36,283.15,413.36,283.15Z"/><path class="cls-7" d="M415.86,361c-35.67,2.28-79-4.23-79.66-4.33l.36-14.81C359.5,340.07,394.81,326,403.74,325c2.49-.26,5.91-.54,9.83-.85l.78-.07,2.16-.15.59-.05h0l.7,0c2.12-.11,4.92-.2,8.08-.17,8.11,0,18.62.88,26.3,4.16,5.44,2.33,9.46,5.89,10.2,11.3C464.08,351.69,442.06,359.27,415.86,361Z"/><path class="cls-3" d="M423.86,364c-35.67,2.28-79-4.23-79.66-4.33l.48-19.64c22.94-1.74,58.13-11,67.06-11.94,2.49-.26,5.91-.54,9.83-.85l.78-.07,2.16-.15.59-.05h0l.7,0c2.12-.11,4.92-.2,8.08-.17,8.11,0,18.62.88,26.3,4.16,5.44,2.33,9.46,5.89,10.2,11.3C472.08,354.69,450.06,362.27,423.86,364Z"/><path class="cls-8" d="M353.65,360.87c-3.72-.33-10.73-.59-16.36.8-19.26,4.74-25.21,3.17-27.22,3.54,0,0-4,1.27-6.42-.38s-.69-5.07-.69-5.07a2.44,2.44,0,0,1-.38-.21,4.19,4.19,0,0,1-1.82-2.68,4.76,4.76,0,0,1,.37-3.41s-2.45-2.15-2.78-3.51a8.1,8.1,0,0,1,.34-3.49s-2.32-2.46-2.09-4c.3-2,2.8-4.09,7.28-5.75l-.28.07c-3.77.75-5.13-1.67-4.43-2.86s9.51-6.19,12.19-5.79,16.54,5.92,22.22,7.52c3.47,1,8.39,3.77,15,3.83h.37Z"/><path class="cls-3" d="M313.17,355.59c-4.71,3.88-8.6,6-11.82,6.89-9,2.52-12.8-4.18-15-8-.77-1.31-13.2-17.93-13.67-36.66-.36-14.4-.86-35.28,0-52.47.58-11.64-4.77-38.54,3.47-48.25,5.59-6.59,13.1-8,20.69-8.22,2.53-.09,4.78.69,7.28,1l13.24,1.88s-5.81,15.8-5,37.85c.68,18.68.71,44,.33,59.18-.06,2.53-.17,4.88-.33,7-.18,2.42-2.35,4-2.66,5.84a22.62,22.62,0,0,0,.79,4.6C312.38,335,316.82,352.59,313.17,355.59Z"/><path class="cls-8" d="M399.82,213.25s-.31,31.46-29.63,34.26c-44.77,3.56-52.83-35.67-52.83-35.67s16.78-3,22.81-15.3c2.34-4.78,3.27-12.17,3.52-19.42.08-2.11.1-4.2.07-6.22-.09-8.88-.92-16.21-.92-16.21l20,14.49L388.7,188s-1,7-1.21,13.29a11.56,11.56,0,0,0,10.1,11.9,10.72,10.72,0,0,0,2,.08Z"/><path class="cls-9" d="M397.59,213.18a24.53,24.53,0,0,1-3.16,6.81c-2.87,4.24-7.14,7.3-11.35,10.2a1.28,1.28,0,0,1-.45.23c-.6.13-1-.58-1.22-1.17-1.38-4.05-2.39-8.33-4.81-11.87-3.5-5.11-9.38-7.93-14.25-11.74a43.35,43.35,0,0,1-15.26-22.06,70,70,0,0,1-1.41-7.32c-.23-1.31-.44-2.63-.59-4a4.72,4.72,0,0,1-.08-1.87s0,0,0,0c5.76-1.5,11.81-1.45,17.76-1.23L388.7,188s-1,7-1.21,13.29A11.56,11.56,0,0,0,397.59,213.18Z"/><path class="cls-3" d="M290.92,209.65s18,11.62,19.45,26.12c2,20,5.26,44.9,4.53,50.2,21.75,4.91,113.53,4.64,113.53,4.64s-18.28-70.13-9.79-84.76l-30.31.22s5.37,25.67-25.5,27.69c-.69,0-1.38.05-2.07,0-10.08-.17-22.5-1.44-31.08-26.65C304.17,207.52,290.92,209.65,290.92,209.65Z"/><path class="cls-10" d="M402.17,162.52c-1.44,13.55-6.14,17.12-11.34,25.17-5.93,9.19-9.73,16.5-19.66,16.5-14.34,0-28.34-19.65-28.34-48.83s13.53-51.17,32.17-51.17S406.83,118.52,402.17,162.52Z"/><polygon class="cls-11" points="439.31 223.9 421.5 191.86 371.83 220.52 394.23 280.02 439.31 223.9"/><path class="cls-12" d="M349.3,339.51a121.67,121.67,0,0,1-15.61,8.88c-7.27,3.38-22.74,12.3-31.31,14-.46-.34,6.47-4,6.19-5.51a5.44,5.44,0,0,1,.31-3.41s-2.09-2.15-2.37-3.51a9.41,9.41,0,0,1,.29-3.49s-2-2.46-1.78-4c.26-2,2.39-4.09,6.21-5.75l-.24.07c-3.22.75-4.38-1.67-3.78-2.86s8.11-6.19,10.39-5.79,14.1,5.92,18.94,7.52C339.5,336.67,343.7,339.45,349.3,339.51Z"/><path class="cls-3" d="M383.2,300.06c-.14.13-2.87,3.62-7.41,8.77-1,1.1-2,2.27-3.15,3.51-9.31,10.19-23.73,24.39-39,33.23-10.17,5.89-22.76,15-32.32,16.91-8.19,1.66-14.15-2-14.4-17.4-.09-5.44-1.83-9.63.58-14.11a13.73,13.73,0,0,1,1.11-1.73,18.14,18.14,0,0,1,2.68-2.79,26.64,26.64,0,0,1,2.58-1.93c4-2.68,8.37-4.87,12.62-7.15,1.29-.69,2.58-1.37,3.88-2q4.59-2.38,9.21-4.69,6.84-3.42,13.7-6.81,10.76-5.34,21.45-10.78l5.05-2.59q2.12-1.08,4.21-2.18c2.59-1.36,5.17-2.75,7.72-4.18Z"/><path class="cls-6" d="M417.05,283.35H400.59a4.88,4.88,0,0,1-4.55-6.67L414.9,228.6a6.1,6.1,0,0,1,5.67-3.87h18.55a5,5,0,0,1,4.62,6.77l-18,45.95A9.29,9.29,0,0,1,417.05,283.35Z"/><path class="cls-13" d="M414.05,281.35H397.59a4.88,4.88,0,0,1-4.55-6.67L411.9,226.6a6.1,6.1,0,0,1,5.67-3.87h18.55a5,5,0,0,1,4.62,6.77l-18,45.95A9.29,9.29,0,0,1,414.05,281.35Z"/><path class="cls-6" d="M437.23,258.29a3.52,3.52,0,0,0-.53-.75c-1.5-.87-18.25,4.3-18.25,4.3l-16.13,5.65,4.63,11,1.08-.61a43.15,43.15,0,0,0-.7,8.23c1.55-.38-.27,5.18,1.32,4.54l7.78,0s10.6-8.26,14.16-13.18a5,5,0,0,0,.92-3.18v-.06a1.26,1.26,0,0,0-.7-1c.92-.7,1.55-1.19,1.77-1.34,1.25-.88,2.25-3.38,2.25-5.38A1.12,1.12,0,0,0,434,265a10.44,10.44,0,0,0,2.35-1.79l0,0A4.24,4.24,0,0,0,437.23,258.29Zm-9.53,8.49,2.64-.52c-3.69,2.07-8.78,4.47-13.15,6.43Z"/><path class="cls-14" d="M412.25,259.19s6.12-1.5,10.37-2.12c7.17-1.3,7.9-4.56,7.66-6.46a1.54,1.54,0,0,0-1.62-1.34l-17.72,1.08a6.8,6.8,0,0,0-2.72.76l-16.45,8.57L403,266.27Z"/><path class="cls-15" d="M395,277.42l18.86-48.07a6.1,6.1,0,0,1,5.68-3.87h18.54a4.87,4.87,0,0,1,2.76.84,4.93,4.93,0,0,0-4.76-3.59H417.57a6.1,6.1,0,0,0-5.67,3.87L393,274.68a4.89,4.89,0,0,0,1.85,5.86A4.8,4.8,0,0,1,395,277.42Z"/><path class="cls-8" d="M402.42,265.39c-1.25-4.41-10.41-8.16-12.11-6.59s-8.67,12.6-11.87,16.56c-2,2.48-4.06,7.21-8.93,10.29l8.14,20.15c2.49-2,8.47-2.77,13.27-4.19,9.94-3,16-5.48,19-7.54,1.68-1.18,6.77-5.36,7.83-6.3,2-1.73-4.35-6.25-4.35-6.25l-6.48-5.5S402.44,265.48,402.42,265.39Z"/><path class="cls-8" d="M390.31,258.8l16.45-8.57a6.67,6.67,0,0,1,2.72-.75l17.72-1.09a1.54,1.54,0,0,1,1.62,1.35c.24,1.89-.49,5.16-7.65,6.45-4.25.63-10.38,2.13-10.38,2.13l-9.25,7.07Z"/><path class="cls-8" d="M414.29,290.61s10.08-7.69,13.63-12.61a4.88,4.88,0,0,0,.92-3.18v-.06a1.27,1.27,0,0,0-1.93-1l-18,10.76Z"/><path class="cls-16" d="M406.48,285.94s14.81-3.16,21.37-11.91c.14-.66.23-1.2.29-1.65a1.27,1.27,0,0,0-1.72-1.34l-19.66,7.28Z"/><path class="cls-8" d="M406.58,276.57s16.21-6.72,23.59-11.18c1.5-.95,3.37-.45,3,1.05,0,2-1,4.5-2.25,5.38s-14.38,11.62-25.25,14.25C405.42,282.82,406.58,276.57,406.58,276.57Z"/><path class="cls-8" d="M401.54,265.39l16.13-5.65s16.75-5.16,18.25-4.29a3.47,3.47,0,0,1,.52.75,4.22,4.22,0,0,1-.84,4.89l0,0a10.55,10.55,0,0,1-5.49,3l-3.17.62-20.75,11.67Z"/><path class="cls-3" d="M413.54,123.44c-4.46,5.05-10.7,7.74-17.5,8.94-19.65,3.5-44-5.43-44-5.43l10.33-23.83s22-18.47,22.32-18.3c13.7,7,27.69-4.12,27.69-4.12s7.82,9.71,8.56,21.89A27.9,27.9,0,0,1,413.54,123.44Z"/><path class="cls-3" d="M331.58,154.07c.92,1.26,1,2.38,2.16,3.45.88.84,2.76,3.24,3.95,3.45s5-3,5.41-1.7a5.19,5.19,0,0,0,1.3,1.72c.28.29.57.58.86.85s.47.55.72.56c0,0-.39-7.84-.41-8.42-.2-8.41,1.05-16.63,7.28-22.77a5.46,5.46,0,0,1,2.69-1.72c1.07-.18,2.37.42,3.43.66q4.06.94,8.18,1.63a86.13,86.13,0,0,0,23,1.06c5.58-.58,20.29-37.84,14.94-38.49-4-.49-7.43-2.93-11-4.62s-5.62-2.83-9.37-4.91c-5.16-2.87-14-3.89-19.69-2.24a61.13,61.13,0,0,0-13.65,5.69c-4.31,2.3-9.3,8.07-9.94,13.09-7.53,1.72-13.85,6.49-16.47,14.41-1.82,5.52-1.87,11.47-1.18,17.19a48.29,48.29,0,0,0,3,11.38A40.31,40.31,0,0,0,331.58,154.07Z"/><path class="cls-8" d="M342.33,150.23s-8.16-6.36-11.93,0,2.52,18.93,13.17,16.42"/><path class="cls-17" d="M202.46,11.14a4.31,4.31,0,1,1-4.3-4.3A4.3,4.3,0,0,1,202.46,11.14Z"/><circle class="cls-17" cx="75.6" cy="195.39" r="4.3"/><circle class="cls-17" cx="522.21" cy="6.84" r="4.3"/><path class="cls-17" d="M728.67,208.73a4.31,4.31,0,1,1-4.31-4.3A4.31,4.31,0,0,1,728.67,208.73Z"/><path class="cls-17" d="M124,81.77a2.24,2.24,0,1,1-2.24-2.23A2.24,2.24,0,0,1,124,81.77Z"/><path class="cls-17" d="M706,329.82a2.24,2.24,0,1,1-2.23-2.24A2.23,2.23,0,0,1,706,329.82Z"/><path class="cls-17" d="M324,64.27A2.24,2.24,0,1,1,321.73,62,2.24,2.24,0,0,1,324,64.27Z"/><path class="cls-17" d="M674,66.51a2.24,2.24,0,1,1-2.24-2.24A2.23,2.23,0,0,1,674,66.51Z"/><circle class="cls-17" cx="79.9" cy="303.72" r="4.3"/><circle class="cls-17" cx="227.39" cy="257.44" r="1.77"/><path class="cls-17" d="M127.31,242.92a2.27,2.27,0,1,1-2.27-2.27A2.26,2.26,0,0,1,127.31,242.92Z"/><rect class="cls-18" y="363.1" width="750.67" height="11.65"/><path class="cls-19" d="M463.44,353.71a38.42,38.42,0,0,0,4,2.52l.64,4.92,2.54,1.91,17.29,0,2.55-1.91L494.32,332l-30,0,.46,3.6a8.62,8.62,0,0,0-4.74.28,6.13,6.13,0,0,0-3.5,3.68C454,345.94,458.79,350.21,463.44,353.71Zm-4.91-13.4a4.07,4.07,0,0,1,2.31-2.48,7.08,7.08,0,0,1,4.25,0l2,15.78a28.73,28.73,0,0,1-2.41-1.58C459.44,348.05,456.74,344.86,458.53,340.31Z"/><path class="cls-20" d="M464.34,332l3.77,29.18,2.54,1.91,17.29,0s-16.92-6-17.56-31.11Z"/><rect class="cls-18" x="229.76" y="292.59" width="8.64" height="64.86" transform="translate(33 -21.39) rotate(5.63)"/><polygon class="cls-21" points="241.56 293.17 235.2 357.72 234.07 357.61 240.44 293.06 241.56 293.17"/><rect class="cls-22" x="224.79" y="306.72" width="4.25" height="47.8" transform="translate(-31.39 23.9) rotate(-5.64)"/><rect class="cls-20" x="226.91" y="306.62" width="2.12" height="47.8" transform="translate(-31.37 24) rotate(-5.64)"/><polygon class="cls-20" points="222.45 307.05 223.93 300.39 226.68 306.63 222.45 307.05"/><polygon class="cls-18" points="223.52 302.22 224.69 302.1 223.93 300.39 223.52 302.22"/><polygon class="cls-22" points="237.14 359.38 233.84 358.7 243.58 307.66 248.42 308.65 237.14 359.38"/><path class="cls-22" d="M235.49,359l-1.65-.34s-.1,3,1.06,3.22,2.24-2.53,2.24-2.53Z"/><path class="cls-22" d="M246.39,306.27a2.44,2.44,0,0,0-2.81,1.39l2.42.5,2.42.49A2.45,2.45,0,0,0,246.39,306.27Z"/><path class="cls-22" d="M246.84,304.08s-.9-.13-1.1.47l-.39,1.92,1,.2.95.2.4-1.93C247.72,304.31,246.84,304.08,246.84,304.08Z"/><path class="cls-22" d="M246,325.69l-.1,0a1.4,1.4,0,0,1-1-1.3c0-.58.5-2,1.81-5.42,1.15-3,2.58-6.72,2.58-7.84a1.69,1.69,0,0,0-1.57-1.77.59.59,0,0,1-.54-.64.58.58,0,0,1,.64-.54,2.86,2.86,0,0,1,2.66,2.95c0,1.24-1.11,4.21-2.67,8.26a41.27,41.27,0,0,0-1.73,4.94.22.22,0,0,0,.15.22s.11,0,.15,0,.09-.18.06-.22a.57.57,0,0,1,0-.82.6.6,0,0,1,.85,0,1.36,1.36,0,0,1-1.24,2.27Z"/><polygon class="cls-20" points="215.51 306.2 218.82 305.57 229.34 356.46 224.49 357.39 215.51 306.2"/><path class="cls-20" d="M217.16,305.88l1.66-.31s-1-2.79-2.21-2.57-1.1,3.2-1.1,3.2Z"/><path class="cls-23" d="M227.28,358.81a2.43,2.43,0,0,0,2.06-2.35l-2.42.46-2.43.47A2.44,2.44,0,0,0,227.28,358.81Z"/><path class="cls-23" d="M227.7,361s.88-.22.83-.85l-.37-1.93-1,.18-1,.19.37,1.93C226.79,361.13,227.7,361,227.7,361Z"/><path class="cls-23" d="M220.2,340.72l.1,0a1.42,1.42,0,0,1,1.43.82c.25.52.31,2.05.4,5.7.08,3.21.18,7.2.61,8.23a1.72,1.72,0,0,0,2.14,1,.59.59,0,0,1,.74.38.6.6,0,0,1-.38.75,2.87,2.87,0,0,1-3.59-1.72c-.48-1.15-.59-4.31-.7-8.65a39.83,39.83,0,0,0-.29-5.22.22.22,0,0,0-.22-.15s-.11,0-.12.09,0,.19,0,.22a.58.58,0,0,1,.35.75.6.6,0,0,1-.77.35,1.3,1.3,0,0,1-.76-1.58A1.32,1.32,0,0,1,220.2,340.72Z"/><rect class="cls-20" x="218.56" y="328.73" width="27.17" height="34.38"/><rect class="cls-18" x="237.4" y="328.73" width="8.33" height="34.38"/><path class="cls-24" d="M603.25,285.06a78.51,78.51,0,0,0-37.87,60.79"/><path class="cls-19" d="M598.84,287.87a14.63,14.63,0,0,1,8.16-6.1,2.93,2.93,0,0,1,2.46.09.94.94,0,0,1,.41.55,1.18,1.18,0,0,1-.39,1,9.87,9.87,0,0,1-5.24,2.69c-1.94.48-3.33,1.09-5.4,1.76"/><path class="cls-19" d="M593.28,292.23a14.67,14.67,0,0,1,9.91-2.37,2.93,2.93,0,0,1,2.23,1.06,1,1,0,0,1,.16.67,1.21,1.21,0,0,1-.76.77,9.81,9.81,0,0,1-5.88.39c-2-.33-3.49-.32-5.66-.52"/><path class="cls-19" d="M586.55,298.46a14.64,14.64,0,0,1,9.55-3.57,2.94,2.94,0,0,1,2.34.79.9.9,0,0,1,.24.64,1.21,1.21,0,0,1-.66.86,9.9,9.9,0,0,1-5.79,1.11c-2-.1-3.5.1-5.68.17"/><path class="cls-19" d="M580.84,305.36a14.7,14.7,0,0,1,9.55-3.57,3,3,0,0,1,2.34.79.91.91,0,0,1,.24.64,1.22,1.22,0,0,1-.66.86,9.91,9.91,0,0,1-5.79,1.11c-2-.09-3.5.1-5.68.17"/><path class="cls-19" d="M574.51,315.42a14.7,14.7,0,0,1,9.13-4.54,3,3,0,0,1,2.41.54,1,1,0,0,1,.31.61,1.27,1.27,0,0,1-.57.93,9.92,9.92,0,0,1-5.65,1.7c-2,.12-3.47.47-5.63.76"/><path class="cls-19" d="M570.64,323.16a15.67,15.67,0,0,1,8.58-5,3.28,3.28,0,0,1,2.44.17.79.79,0,0,1,.37.48c.06.32-.2.63-.47.87a11.09,11.09,0,0,1-5.42,2.15c-2,.34-3.39.83-5.5,1.34"/><path class="cls-19" d="M590.86,294.37a15.81,15.81,0,0,1,.69-10.66,3.2,3.2,0,0,1,1.7-2,.87.87,0,0,1,.69,0,1.22,1.22,0,0,1,.52,1,11,11,0,0,1-1.39,6.06c-.92,1.9-1.36,3.44-2.21,5.59"/><path class="cls-19" d="M585.8,299.35a15.86,15.86,0,0,1-1.87-10.51,3.23,3.23,0,0,1,1.18-2.32.91.91,0,0,1,.67-.16,1.2,1.2,0,0,1,.74.83,10.92,10.92,0,0,1,.1,6.21c-.44,2.06-.5,3.67-.82,6"/><path class="cls-19" d="M580.09,306.56a15.86,15.86,0,0,1-4-9.92,3.25,3.25,0,0,1,.7-2.51,1,1,0,0,1,.63-.29,1.24,1.24,0,0,1,.88.66,10.91,10.91,0,0,1,1.34,6.07c0,2.11.24,3.7.4,6"/><path class="cls-19" d="M573.68,316.46A15.81,15.81,0,0,1,572,305.91a3.21,3.21,0,0,1,1.23-2.3,1,1,0,0,1,.68-.14,1.22,1.22,0,0,1,.71.84,10.86,10.86,0,0,1,0,6.21c-.48,2.06-.58,3.66-.94,5.94"/><path class="cls-19" d="M570.27,324.23a15.91,15.91,0,0,1-6.22-8.68,3.29,3.29,0,0,1,.07-2.6,1,1,0,0,1,.54-.43,1.2,1.2,0,0,1,1,.42,11,11,0,0,1,2.76,5.57c.5,2.05,1.13,3.53,1.83,5.72"/><path class="cls-24" d="M602.82,312.88a49.72,49.72,0,0,0-36.12,27.43"/><path class="cls-19" d="M599.58,313.55a9.23,9.23,0,0,1,6.2-1.78,1.87,1.87,0,0,1,1.44.62.62.62,0,0,1,.12.41.75.75,0,0,1-.46.51,6.25,6.25,0,0,1-3.71.41c-1.25-.16-2.21-.11-3.59-.17"/><path class="cls-19" d="M595.31,314.87a9.29,9.29,0,0,1,6.4.83,1.88,1.88,0,0,1,1.07,1.14.59.59,0,0,1,0,.43.78.78,0,0,1-.63.28,6.27,6.27,0,0,1-3.57-1.09c-1.08-.64-2-1-3.22-1.59"/><path class="cls-19" d="M589.92,317a9.29,9.29,0,0,1,6.45,0,1.86,1.86,0,0,1,1.21,1,.58.58,0,0,1,0,.43.77.77,0,0,1-.59.36,6.31,6.31,0,0,1-3.67-.65c-1.16-.51-2.1-.73-3.4-1.18"/><path class="cls-19" d="M585,319.84a9.27,9.27,0,0,1,6.46,0,1.85,1.85,0,0,1,1.2,1,.61.61,0,0,1,0,.44.78.78,0,0,1-.58.36,6.26,6.26,0,0,1-3.68-.66c-1.16-.5-2.09-.72-3.4-1.17"/><path class="cls-19" d="M579,324.36a9.25,9.25,0,0,1,6.42-.62,1.9,1.9,0,0,1,1.31.86.58.58,0,0,1,0,.43.75.75,0,0,1-.55.42,6.26,6.26,0,0,1-3.72-.27c-1.2-.38-2.16-.5-3.5-.82"/><path class="cls-19" d="M574.93,328.07a9.9,9.9,0,0,1,6.2-1,2.06,2.06,0,0,1,1.41.65.49.49,0,0,1,.12.37c0,.2-.27.33-.48.41a7,7,0,0,1-3.69,0c-1.24-.24-2.2-.28-3.56-.45"/><path class="cls-19" d="M593.39,315.59a10.06,10.06,0,0,1,2.81-6.15,2.05,2.05,0,0,1,1.45-.78.54.54,0,0,1,.41.16.78.78,0,0,1,.09.69,6.89,6.89,0,0,1-2.19,3.27c-1,.92-1.58,1.73-2.57,2.81"/><path class="cls-19" d="M589.28,317.4a10,10,0,0,1,1.26-6.64,2,2,0,0,1,1.22-1.11.58.58,0,0,1,.43.06.75.75,0,0,1,.25.65,6.88,6.88,0,0,1-1.34,3.7c-.72,1.12-1.13,2.06-1.82,3.34"/><path class="cls-19" d="M584.26,320.38a10.05,10.05,0,0,1-.09-6.76,2,2,0,0,1,1-1.33.54.54,0,0,1,.43,0,.75.75,0,0,1,.38.59,6.87,6.87,0,0,1-.58,3.89c-.48,1.25-.69,2.24-1.12,3.64"/><path class="cls-19" d="M578.24,324.79a10.08,10.08,0,0,1,1.41-6.62,2.11,2.11,0,0,1,1.24-1.08.66.66,0,0,1,.44.07.79.79,0,0,1,.23.66,6.91,6.91,0,0,1-1.42,3.67c-.75,1.11-1.17,2-1.9,3.3"/><path class="cls-19" d="M574.47,328.62a10,10,0,0,1-1.72-6.54,2.06,2.06,0,0,1,.63-1.53.58.58,0,0,1,.41-.13c.24,0,.4.26.51.48a6.94,6.94,0,0,1,.38,3.92c-.17,1.33-.13,2.34-.21,3.8"/><path class="cls-25" d="M544.27,297.62a58.41,58.41,0,0,1,20.66,49.12"/><path class="cls-19" d="M547.18,300.21a10.86,10.86,0,0,0-5.27-5.44,2.19,2.19,0,0,0-1.82-.22.67.67,0,0,0-.37.35.89.89,0,0,0,.17.79,7.27,7.27,0,0,0,3.53,2.59c1.37.58,2.32,1.19,3.76,1.93"/><path class="cls-19" d="M550.75,304.07a10.87,10.87,0,0,0-7-2.91,2.18,2.18,0,0,0-1.76.52.69.69,0,0,0-.2.47.93.93,0,0,0,.47.66,7.38,7.38,0,0,0,4.27,1c1.49,0,2.6.17,4.22.28"/><path class="cls-19" d="M555,309.43a10.92,10.92,0,0,0-6.6-3.74,2.19,2.19,0,0,0-1.81.3.73.73,0,0,0-.25.44.89.89,0,0,0,.39.71,7.31,7.31,0,0,0,4.12,1.5c1.47.17,2.56.49,4.15.79"/><path class="cls-19" d="M558.34,315.18a10.88,10.88,0,0,0-6.59-3.75,2.18,2.18,0,0,0-1.81.31.69.69,0,0,0-.26.44.91.91,0,0,0,.39.71,7.37,7.37,0,0,0,4.12,1.49c1.48.17,2.56.49,4.15.8"/><path class="cls-19" d="M561.8,323.31a10.86,10.86,0,0,0-6.17-4.4,2.16,2.16,0,0,0-1.83.11.73.73,0,0,0-.3.41.93.93,0,0,0,.31.75,7.42,7.42,0,0,0,4,1.91c1.45.32,2.49.75,4,1.22"/><path class="cls-19" d="M563.74,329.46a11.61,11.61,0,0,0-5.71-4.69,2.49,2.49,0,0,0-1.82-.17.59.59,0,0,0-.33.31.79.79,0,0,0,.24.69,8.2,8.2,0,0,0,3.73,2.22c1.41.49,2.4,1,3.89,1.64"/><path class="cls-19" d="M552.28,305.92A11.86,11.86,0,0,0,553,298a2.43,2.43,0,0,0-1-1.64.67.67,0,0,0-.51-.08c-.27.08-.41.38-.5.66a8.11,8.11,0,0,0,.31,4.61c.45,1.5.6,2.69,1,4.36"/><path class="cls-19" d="M555.4,310.18a11.79,11.79,0,0,0,2.62-7.5,2.43,2.43,0,0,0-.6-1.85.7.7,0,0,0-.47-.19.92.92,0,0,0-.64.52,8.07,8.07,0,0,0-.8,4.55c.07,1.57-.07,2.75-.11,4.47"/><path class="cls-19" d="M558.75,316.15a11.77,11.77,0,0,0,4.07-6.82,2.42,2.42,0,0,0-.22-1.93.71.71,0,0,0-.43-.29.89.89,0,0,0-.72.39,8.07,8.07,0,0,0-1.7,4.29c-.24,1.56-.61,2.69-1,4.36"/><path class="cls-19" d="M562.3,324.17a11.77,11.77,0,0,0,2.44-7.55,2.42,2.42,0,0,0-.63-1.83.7.7,0,0,0-.48-.19c-.28,0-.48.28-.63.53a8.13,8.13,0,0,0-.7,4.57c.11,1.57,0,2.76,0,4.47"/><path class="cls-19" d="M563.88,330.28a11.74,11.74,0,0,0,5.59-5.64,2.44,2.44,0,0,0,.26-1.92.69.69,0,0,0-.35-.38.89.89,0,0,0-.8.19,8.15,8.15,0,0,0-2.68,3.77c-.61,1.45-1.24,2.46-2,4"/><path class="cls-20" d="M549,334.45l3.16,23.92a5.07,5.07,0,0,0,4.67,4.61c2.14.07,5.31.12,9.86.12,4.72,0,8-.06,10.24-.13a5.07,5.07,0,0,0,4.68-4.6l3.15-23.92Z"/><path class="cls-18" d="M581.5,334.45l-2.89,21.88a5.07,5.07,0,0,1-4.68,4.61c-2.23.07-5.52.13-10.24.13-4.55,0-7.72-.05-9.86-.12a5.36,5.36,0,0,1-.7-.09,4.7,4.7,0,0,0,3.72,2.12c2.14.07,5.31.12,9.86.12,4.72,0,8-.06,10.24-.13a5.07,5.07,0,0,0,4.68-4.6l3.15-23.92Z"/><path class="cls-18" d="M156.55,341.44s-13.64-8-16.59-23.65c0,0,12.84,2.66,19.28,23.65"/><path class="cls-20" d="M161.93,341.44s13.63-8,16.58-23.65c0,0-12.84,2.66-19.27,23.65"/><path class="cls-20" d="M157.81,340.16s-9.83-12.37-6.93-28.05c0,0,11,7.12,9.44,29"/><path class="cls-18" d="M161,340.21s9.54-12.6,6.27-28.2c0,0-10.85,7.37-8.75,29.23"/><rect class="cls-20" x="144.06" y="338.26" width="29.71" height="24.84" rx="12.42"/><path class="cls-18" d="M170.38,342.18a12.3,12.3,0,0,1,2.2,7,12.43,12.43,0,0,1-12.42,12.43H155.3a12.39,12.39,0,0,1-9-3.92,12.41,12.41,0,0,0,10.22,5.37h4.87a12.4,12.4,0,0,0,9-20.92Z"/><rect class="cls-26" x="197.63" y="68.19" width="95.76" height="49.87" rx="11.75" transform="translate(491.02 186.25) rotate(180)"/><polyline class="cls-13" points="225.66 195.85 233.75 200.17 229.71 189.65"/><path class="cls-13" d="M200.55,182.4a17.11,17.11,0,1,0,17.1-17.1A17.11,17.11,0,0,0,200.55,182.4Z"/><polyline class="cls-27" points="210.45 180.77 215.64 187.23 224.85 177.57"/><rect class="cls-13" x="532.45" y="183.8" width="120.33" height="62.67" rx="11.75"/><polyline class="cls-13" points="538.72 245.07 531.03 249.16 534.88 239.18"/><line class="cls-28" x1="546.92" y1="197.69" x2="638.29" y2="197.69"/><line class="cls-28" x1="546.92" y1="208.57" x2="638.29" y2="208.57"/><line class="cls-28" x1="546.92" y1="219.44" x2="638.29" y2="219.44"/><line class="cls-28" x1="546.92" y1="230.32" x2="603.79" y2="230.32"/><rect class="cls-29" x="471.04" y="88.42" width="77.02" height="53.25" rx="11.75"/><polyline class="cls-30" points="471.04 95.99 509.55 122.61 548.05 95.99"/><line class="cls-31" x1="536.31" y1="88.42" x2="482.79" y2="88.42"/><circle class="cls-3" cx="543.84" cy="93.23" r="12.54" transform="translate(78.62 389.92) rotate(-42.25)"/><path class="cls-32" d="M543.84,90.19h0l-2,1-.41-1.88L544.19,88h2.08V98.69h-2.43Z"/><path class="cls-13" d="M156.18,86.71H253c6.49,0,11.75,3.88,11.75,8.68v28.92a7.07,7.07,0,0,1-1.76,4.56l3.18,6.11-7.64-3a15.12,15.12,0,0,1-5.53,1H156.18c-6.49,0-11.75-3.88-11.75-8.68V95.39C144.43,90.59,149.69,86.71,156.18,86.71Z"/><path class="cls-33" d="M149.93,138.94c-7.39,0-13.39-4.43-13.39-9.89v-33"/><line class="cls-28" x1="160.78" y1="96.95" x2="252.15" y2="96.95"/><line class="cls-28" x1="160.78" y1="104.98" x2="252.15" y2="104.98"/><line class="cls-28" x1="160.78" y1="113.01" x2="252.15" y2="113.01"/><line class="cls-28" x1="160.78" y1="121.04" x2="217.65" y2="121.04"/></g></g></g></svg>