<svg xmlns="http://www.w3.org/2000/svg" viewBox="0 0 448 448"><defs><style>.cls-1{fill:#007cff;}</style></defs><g id="Layer_2" data-name="Layer 2"><g id="Layer_1-2" data-name="Layer 1"><path class="cls-1" d="M64,0A64.06,64.06,0,0,0,0,64V384a64.06,64.06,0,0,0,64,64H384a64.06,64.06,0,0,0,64-64V64A64.06,64.06,0,0,0,384,0Zm90.7,96.7a20,20,0,0,1,23.7,11.6l20,48a20.08,20.08,0,0,1-5.8,23.2L168,199.7A168.35,168.35,0,0,0,248.3,280l20.2-24.7a20.08,20.08,0,0,1,23.2-5.8l48,20a20,20,0,0,1,11.6,23.7l-12,44A20,20,0,0,1,320,352C196.3,352,96,251.7,96,128a20,20,0,0,1,14.7-19.3Z"/></g></g></svg>